<svg xmlns="http://www.w3.org/2000/svg" width="25.569" height="25.991" viewBox="0 0 25.569 25.991">
  <g id="Union_2" data-name="Union 2" fill="#fff">
    <path d="M 13.90268516540527 24.99053955078125 L 12.05565071105957 24.99053955078125 C 11.95278644561768 24.87917900085449 11.80813312530518 24.64727401733398 11.7399959564209 24.49260902404785 L 11.73572635650635 24.48292922973633 L 11.73125648498535 24.47335052490234 L 10.84313678741455 22.5677604675293 L 10.65208625793457 22.15781021118164 L 10.21806621551514 22.03058052062988 C 9.605756759643555 21.85107040405273 9.009376525878906 21.60503005981445 8.44550609588623 21.2992992401123 L 7.982786178588867 21.04841041564941 L 7.514016628265381 21.28780937194824 L 5.767814636230469 22.17963409423828 C 5.649828433990479 22.21971130371094 5.420691967010498 22.28254699707031 5.249560356140137 22.2881031036377 L 3.932494163513184 20.94929313659668 C 3.934545040130615 20.79645156860352 3.995076894760132 20.51770210266113 4.056796550750732 20.35329055786133 L 4.060546398162842 20.34329032897949 L 4.064086437225342 20.33320999145508 L 4.760156631469727 18.35120010375977 L 4.907276630401611 17.93227005004883 L 4.695186614990234 17.54217910766602 C 4.384006500244141 16.96985054016113 4.131576538085938 16.36334991455078 3.944886445999146 15.73950004577637 L 3.796526432037354 15.24370956420898 L 3.306096315383911 15.07850933074951 L 1.453552007675171 14.45448017120361 C 1.286547183990479 14.37108612060547 1.0932377576828 14.23987483978271 0.9999964237213135 14.1486349105835 L 0.9999964237213135 12.23768615722656 C 1.100338220596313 12.13942241668701 1.317213773727417 11.99456119537354 1.495076417922974 11.91172981262207 L 1.504936456680298 11.90723991394043 L 1.510926365852356 11.90427017211914 L 3.380416393280029 11.00391960144043 L 3.785496473312378 10.80882930755615 L 3.908416509628296 10.3763599395752 C 4.086616516113281 9.7493896484375 4.330636501312256 9.139419555664063 4.633686542510986 8.563399314880371 L 4.871206283569336 8.111949920654297 L 4.645146369934082 7.65464973449707 L 3.767337322235107 5.87889289855957 C 3.705278158187866 5.694589138031006 3.658775329589844 5.455474853515625 3.656967163085938 5.320740222930908 L 4.973748207092285 3.982283353805542 C 5.165839672088623 3.988505840301514 5.431190490722656 4.066987991333008 5.53390645980835 4.105789661407471 L 5.544086456298828 4.109739780426025 L 5.550466537475586 4.111969947814941 L 7.503326416015625 4.820679664611816 L 7.933846473693848 4.976919651031494 L 8.333376884460449 4.753009796142578 C 8.893036842346191 4.439339637756348 9.48603630065918 4.184869766235352 10.09590625762939 3.996669769287109 L 10.59126663208008 3.843799829483032 L 10.75184631347656 3.350899696350098 L 11.3676872253418 1.460607528686523 C 11.44858932495117 1.292760610580444 11.57576847076416 1.09794282913208 11.66611385345459 0.9999997615814209 L 13.51314735412598 0.9999997615814209 C 13.61596393585205 1.111466646194458 13.76046466827393 1.34326696395874 13.8285665512085 1.497869729995728 L 13.83285617828369 1.507609724998474 L 13.83735656738281 1.51725971698761 L 14.72756671905518 3.426989793777466 L 14.91824626922607 3.836049795150757 L 15.35114669799805 3.963669776916504 C 15.96086597442627 4.143429756164551 16.55474662780762 4.389209747314453 17.11628723144531 4.694180011749268 L 17.57917594909668 4.945580005645752 L 18.04831695556641 4.706029891967773 L 19.80126571655273 3.810932159423828 C 19.91921043395996 3.77085280418396 20.1484317779541 3.707976341247559 20.31958961486816 3.702433586120605 L 21.63622283935547 5.040802478790283 C 21.63424682617188 5.19365930557251 21.57368278503418 5.472650051116943 21.51190567016602 5.637189865112305 L 21.50811576843262 5.647269725799561 L 21.50454711914063 5.657439708709717 L 20.8038272857666 7.653459548950195 L 20.65704727172852 8.071579933166504 L 20.86818695068359 8.461179733276367 C 21.17531585693359 9.027890205383301 21.42496681213379 9.628600120544434 21.61020660400391 10.24662017822266 L 21.75873565673828 10.74214935302734 L 22.24899673461914 10.90722942352295 L 24.11525344848633 11.53561878204346 C 24.28240585327148 11.61905097961426 24.47591400146484 11.75039291381836 24.56915664672852 11.84167957305908 L 24.56915664672852 13.7523717880249 C 24.46864318847656 13.8506441116333 24.25169372558594 13.9954195022583 24.07376670837402 14.07823944091797 L 24.06378555297852 14.08277988433838 L 24.05767631530762 14.08582019805908 L 22.17428588867188 14.99304962158203 L 21.76965713500977 15.18795967102051 L 21.64655685424805 15.6198902130127 C 21.46969604492188 16.24046897888184 21.22811698913574 16.84483909606934 20.92853736877441 17.41621971130371 L 20.69209671020508 17.86713981628418 L 20.91766548156738 18.32359886169434 L 21.80131912231445 20.11178016662598 C 21.86342239379883 20.29588890075684 21.91000556945801 20.53487396240234 21.91186141967773 20.66955375671387 L 20.59513282775879 22.00803756713867 C 20.39480972290039 22.00160598754883 20.11985397338867 21.91750907897949 20.03879547119141 21.88611030578613 L 20.02877616882324 21.88222885131836 L 20.01868629455566 21.87857055664063 L 18.05802726745605 21.16703033447266 L 17.62717628479004 21.01066970825195 L 17.22748565673828 21.2349796295166 C 16.67038726806641 21.54763031005859 16.07998657226563 21.80167007446289 15.47269630432129 21.99005889892578 L 14.97847652435303 22.14336967468262 L 14.81816673278809 22.6353702545166 L 14.2008638381958 24.53001594543457 C 14.12002468109131 24.69777488708496 13.99298858642578 24.89250183105469 13.90268516540527 24.99053955078125 Z" stroke="none"/>
    <path d="M 13.32490158081055 23.99053955078125 L 13.86736679077148 22.32559013366699 L 14.18796634674072 21.34157943725586 L 15.17641639709473 21.03495979309082 C 15.71672630310059 20.86734962463379 16.24214553833008 20.64125061035156 16.73808670043945 20.36291885375977 L 17.5374755859375 19.91429901123047 L 18.39916610717773 20.22701072692871 L 20.27481842041016 20.90769958496094 L 20.81023979187012 20.36343574523926 L 20.02115631103516 18.76663017272949 L 19.57002639770508 17.85371017456055 L 20.04288673400879 16.95184898376465 C 20.31073570251465 16.44100952148438 20.52672576904297 15.90065956115723 20.68485641479492 15.34579944610596 L 20.93105697631836 14.4819393157959 L 21.74031639099121 14.09212017059326 L 23.56915664672852 13.21116638183594 L 23.56915664672852 12.40690612792969 L 21.92989730834961 11.85494995117188 L 20.94935607910156 11.52478981018066 L 20.65230560302734 10.53372955322266 C 20.4867057800293 9.981229782104492 20.26353645324707 9.444230079650879 19.98900604248047 8.937649726867676 L 19.56671714782715 8.158459663391113 L 19.86028671264648 7.322219848632813 L 20.54869842529297 5.36126184463501 L 20.01883888244629 4.82265567779541 L 18.50307655334473 5.596639633178711 L 17.56480598449707 6.075739860534668 L 16.6390266418457 5.572939872741699 C 16.13918685913086 5.301479816436768 15.61074638366699 5.082759857177734 15.06836605072021 4.922859668731689 L 14.20256614685059 4.667609691619873 L 13.82119655609131 3.849479675292969 L 12.95907115936279 1.999999761581421 L 12.24369430541992 1.999999761581421 L 11.70266628265381 3.660659790039063 L 11.38149642944336 4.646479606628418 L 10.39077663421631 4.952199935913086 C 9.84821605682373 5.119629859924316 9.320496559143066 5.346109867095947 8.822286605834961 5.625339984893799 L 8.023236274719238 6.073179721832275 L 7.162186622619629 5.76069974899292 L 5.293964862823486 5.082705974578857 L 4.758378028869629 5.627104759216309 L 5.541596412658691 7.211509704589844 L 5.993706226348877 8.126099586486816 L 5.518676280975342 9.028999328613281 C 5.247776508331299 9.543910026550293 5.029636383056641 10.08920955657959 4.870316505432129 10.64974975585938 L 4.624476432800293 11.51470947265625 L 3.814326524734497 11.90487957000732 L 1.999996423721313 12.77866458892822 L 1.999996423721313 13.58334064483643 L 3.625316381454468 14.13082981109619 L 4.606186389923096 14.4612398147583 L 4.902916431427002 15.45281982421875 C 5.069816589355469 16.01054954528809 5.295506477355957 16.55281066894531 5.573726654052734 17.06451988220215 L 5.997916221618652 17.84469032287598 L 5.703656196594238 18.68255996704102 L 5.020105838775635 20.62892150878906 L 5.550294876098633 21.1678638458252 L 7.059186458587646 20.39723968505859 L 7.996716499328613 19.91841888427734 L 8.92215633392334 20.42020034790039 C 9.424056053161621 20.69233894348145 9.954716682434082 20.91128921508789 10.49939632415771 21.07095909118652 L 11.36741638183594 21.325439453125 L 11.74953651428223 22.14531898498535 L 12.60951995849609 23.99053955078125 L 13.32490158081055 23.99053955078125 M 14.05650615692139 25.99053955078125 L 11.90245628356934 25.99053955078125 C 11.30717658996582 25.99053955078125 10.82486629486084 24.89578056335449 10.82486629486084 24.89578056335449 L 9.936746597290039 22.99019050598145 C 9.248016357421875 22.78828048706055 8.58963680267334 22.51498031616211 7.968856334686279 22.17839050292969 L 6.167406558990479 23.09843063354492 C 6.167406558990479 23.09843063354492 5.677285671234131 23.28847694396973 5.225913047790527 23.28850173950195 C 5.000185489654541 23.28851318359375 4.784210205078125 23.24100112915039 4.643946647644043 23.09843063354492 L 3.12057638168335 21.54990005493164 C 2.699836492538452 21.12273025512695 3.12057638168335 20.00185966491699 3.12057638168335 20.00185966491699 L 3.816646337509155 18.01984977722168 C 3.475276470184326 17.39199066162109 3.195956468582153 16.72490882873535 2.986866474151611 16.02618980407715 L 1.0770263671875 15.38286018371582 C 1.0770263671875 15.38286018371582 -3.583984380384209e-06 14.89262962341309 -3.583984380384209e-06 14.28810024261475 L -3.583984380384209e-06 12.09856986999512 C -3.583984380384209e-06 11.49353981018066 1.0770263671875 11.00331020355225 1.0770263671875 11.00331020355225 L 2.946516513824463 10.10295963287354 C 3.145896434783936 9.401470184326172 3.416176319122314 8.729820251464844 3.748696327209473 8.097789764404297 L 2.844686508178711 6.26902961730957 C 2.844686508178711 6.26902961730957 2.424516439437866 5.148149967193604 2.844686508178711 4.720489978790283 L 4.368146419525146 3.17195987701416 C 4.508384704589844 3.029415130615234 4.724430084228516 2.981888771057129 4.950112819671631 2.981888771057129 C 5.401520252227783 2.981888771057129 5.891606330871582 3.17195987701416 5.891606330871582 3.17195987701416 L 7.844466209411621 3.880669832229614 C 8.460586547851563 3.535359859466553 9.115636825561523 3.252639770507813 9.801036834716797 3.04112982749939 L 10.43514633178711 1.094759821891785 C 10.43514633178711 1.094759821891785 10.91746616363525 -2.24609379984031e-07 11.51273632049561 -2.24609379984031e-07 L 13.66678619384766 -2.24609379984031e-07 C 14.26149654388428 -2.24609379984031e-07 14.7437162399292 1.094759821891785 14.7437162399292 1.094759821891785 L 15.63392639160156 3.004489660263062 C 16.31961631774902 3.206639766693115 16.97532653808594 3.479659795761108 17.59354591369629 3.815419673919678 L 19.40174674987793 2.892109870910645 C 19.40174674987793 2.892109870910645 19.89186668395996 2.702038764953613 20.34323883056641 2.702038764953613 C 20.56896781921387 2.702038764953613 20.78494262695313 2.749539136886597 20.92520713806152 2.892109870910645 L 22.44809722900391 4.440149784088135 C 22.86892700195313 4.867809772491455 22.44809722900391 5.988679885864258 22.44809722900391 5.988679885864258 L 21.74737548828125 7.984699726104736 C 22.08455657958984 8.606860160827637 22.36082649230957 9.267950057983398 22.56810569763184 9.95950984954834 L 24.49165725708008 10.60719013214111 C 24.49165725708008 10.60719013214111 25.56915664672852 11.09741973876953 25.56915664672852 11.7024393081665 L 25.56915664672852 13.89196968078613 C 25.56915664672852 14.49650955200195 24.49165725708008 14.98674011230469 24.49165725708008 14.98674011230469 L 22.60826683044434 15.89396953582764 C 22.41021728515625 16.58889007568359 22.14279556274414 17.25382995605469 21.81417655944824 17.88057899475098 L 22.72389602661133 19.72150993347168 C 22.72389602661133 19.72150993347168 23.1446361541748 20.8423900604248 22.72389602661133 21.27005004882813 L 21.20052719116211 22.81858062744141 C 21.06044769287109 22.96096038818359 20.84450912475586 23.00842666625977 20.61889839172363 23.00843238830566 C 20.16763305664063 23.00844383239746 19.67754554748535 22.81858062744141 19.67754554748535 22.81858062744141 L 17.71688652038574 22.10704040527344 C 17.1035270690918 22.45125961303711 16.45113563537598 22.73354911804199 15.76897621154785 22.94515991210938 L 15.13343620300293 24.89578056335449 C 15.13343620300293 24.89578056335449 14.65121650695801 25.99053955078125 14.05650615692139 25.99053955078125 Z" stroke="none" fill="#797876"/>
  </g>
  <g id="Ellipse_12" data-name="Ellipse 12" transform="translate(6.087 6.097)" fill="#fff" stroke="#797876" stroke-width="2">
    <ellipse cx="6.562" cy="6.772" rx="6.562" ry="6.772" stroke="none"/>
    <ellipse cx="6.562" cy="6.772" rx="5.562" ry="5.772" fill="none"/>
  </g>
</svg>
