<svg id="Layer_1" data-name="Layer 1" xmlns="http://www.w3.org/2000/svg" viewBox="0 0 771.25 283.4" style="padding: 100px;"><defs><style>.cls-1{fill:#df4737;}.cls-2{fill:#2981c4;}.cls-3{fill:#f5b55a;}.cls-4,.cls-5{isolation:isolate;}.cls-5{font-size:183.07px;fill:#3a3937;font-family:Apercu-Bold, Apercu;font-weight:700;letter-spacing:-0.04em;}.cls-6{letter-spacing:-0.05em;}.cls-7{letter-spacing:-0.06em;}.cls-8{letter-spacing:-0.05em;}</style></defs><g id="Group_15" data-name="Group 15"><path id="Path_1" data-name="Path 1" class="cls-1" d="M298.84,490a32.84,32.84,0,0,1-.56-9.94l.35-3.44a8.32,8.32,0,0,0-2.76-4.28c-7.42-18.61-4.83-44.07,12.34-55.16a6.77,6.77,0,1,0-10.07-1.94c4.65,6.67-7.32,14.94-14,10.15s-6.2-15-2.14-22.07,10.73-12.27,15.48-18.88,7.32-16.06,2.39-22.56-18.6-3.75-17.78,4.29a45.32,45.32,0,0,1-1.13,21,16.11,16.11,0,0,1-16.45,11c-7.09-1.23-11.18-11.57-5.48-15.88a8.89,8.89,0,0,0,1-12.54,8.3,8.3,0,0,0-1.2-1.17,9.25,9.25,0,0,0-13.39,3.94c5.48,3.84.46,13.08-6.13,14.42s-13.24-1.64-19.94-2.26-15.14,3.14-14.72,9.71c.53,8.18-8.63,14.48-17,14A37.49,37.49,0,0,1,166,397.13a76,76,0,0,0-19.73-15c-7.67-3.27-17.9-2.62-22.88,4s.22,18.6,8.5,17.4a49.43,49.43,0,0,1,41.32,13.66C177,421,181,427.4,177.85,431.12a14.65,14.65,0,0,1-13.8,3A33.62,33.62,0,0,0,149.4,433c-4.76,1.32-8.46,6.72-3.08,9.94,17.9,0,29.35,14,33.79,29.87a60.34,60.34,0,0,1-8.81,47.08,169.27,169.27,0,0,1-33.47,36.4,15.5,15.5,0,0,0,6.87,25.46,15.7,15.7,0,0,0,17.09-20.31,26.59,26.59,0,0,1,9.79-32,27.79,27.79,0,0,1,33.84,3.84c4,4.15,11.43.5,14.22-4.51s3.4-11.15,7.09-15.55,12.8-4.8,13.91.8L253,566.8c1.75,7.43,14.83,5,16.91-2.36s-2.66-14.74-7.32-20.83-9.81-13.05-8.56-20.58,13.39-12,16.74-5.14A12.51,12.51,0,0,0,285,524.13a12.19,12.19,0,0,0,8.6-12.68,14,14,0,0,1,6.12-12.65A46,46,0,0,1,298.84,490Z" transform="translate(-110.99 -358.3)"/><path id="Path_2" data-name="Path 2" class="cls-2" d="M287.9,598.46A87.07,87.07,0,0,0,277.4,582c-3.62-5.45-7.58-10.4-5.66-16.65.61-1.95,2.66-4,3.67-3.88v.52a11.65,11.65,0,0,1,1.2-3.28,8.63,8.63,0,0,1-.62-2.29,11.11,11.11,0,0,1-.91-1.36c-.13-.07-.28-.09-.41-.16a10.31,10.31,0,0,1-5.52-5.53,7.69,7.69,0,0,1-.9-4l.37-2.78.84-2c3.89-6.54-1.32-21.53,4.93-31.26,3.78-5.88-.61-21.44-7.39-23.18-21-5.32-49.1,19.28-62.24-9.51-4.86-3.43-9.76-6.81-14.94-9.86a10.69,10.69,0,1,0-11,18.31,10.82,10.82,0,0,0,2.3,1c6.48,2.09,6.8,12.28,1.67,16.74A20.7,20.7,0,0,1,163.33,505a201.24,201.24,0,0,0-19.25-6.74,17.34,17.34,0,0,0-18.22,6c-3.57,5.8,1.14,15.44,7.82,14.13,12.71-2.55,35.56,15.33,25.63,24.37a66.52,66.52,0,0,1-6.19,2.84,10.32,10.32,0,0,1-1.24,7.93,19,19,0,0,1-2.18,2.72,17.32,17.32,0,0,1-5.14,15.22c-5.71,5.46-13.6,7.81-20.5,11.67-1.22.68,1.49-.65.35-.08a29.38,29.38,0,0,0-10.1,9.88,39.43,39.43,0,0,0-2.7,5.64,6.07,6.07,0,0,0-.6,3c1.1,9.94,14.25,12.08,17.39,4.83a47,47,0,0,1,12.13-18.89,16.14,16.14,0,0,1,20.71-.67c5.38,5.32,1.83,17-5.72,16.55a9.88,9.88,0,1,0,9,11.87c1.57-7.6,12.28-9.26,19.36-6s12.55,9.42,19.82,12.12,18-1,17.69-8.71a10.23,10.23,0,1,1,15,8.72c-6.68,3.51-6,14.74.47,18.64a15.55,15.55,0,0,0,19.82-5.39A25.38,25.38,0,0,0,258.83,613c-2.26-7.2-17.9-14.43-10.92-19.72,8.79-4.31,12.1-4,17.17-.57a15.09,15.09,0,0,1,6,16.12c-1.74,6.3,7.72,11.16,13.12,7.46A15.19,15.19,0,0,0,287.9,598.46Z" transform="translate(-110.99 -358.3)"/><path id="Path_3" data-name="Path 3" class="cls-3" d="M291.89,432.94a50,50,0,0,0,3.05-39.76,6.32,6.32,0,0,1,8.9-7.78A12.7,12.7,0,0,1,308.1,400c-1.3,5.05-4,9.7-4.91,14.84s2.7,19,7.81,17.93c3.2-.66,7.13-6.74,9.61-8.89,6.62-5.69-7.68-14.64,8-9.62,1.54.49,2.42,2.19,4,2.61,6.43,1.75,5.75-9.94,9.17-10.4,7.27-1,12.31,22.75,22.75,18.58,4.13-1.64,7.69,5.71,4,8a21.87,21.87,0,0,0-5.66,11.75c-.73,11,11.78-4.68,17.41.73l.37.36a8.86,8.86,0,0,0,12.06,0,8.12,8.12,0,0,1,11.45.73,8.26,8.26,0,0,1,.75,1A9.72,9.72,0,0,1,397,463.66c-10.34-.49-19.17,14.79-6.62,22.49a12.74,12.74,0,0,0,12,.42,7,7,0,0,1,9.62,8.49,8.5,8.5,0,0,1-5.11,5c-15.14,5.79-29.79,15.51-33.64,32.48a26,26,0,0,0,10.14,26.37,17,17,0,1,1-26.68,17.69,4.6,4.6,0,0,0-8.95.11c-.83,3.92,1,8,.34,12a4.8,4.8,0,0,1-9.1,1.19,14.21,14.21,0,0,0-26.48,10.23c2.75,8.31-4.71,21.44-13,18.61-6.16-2.09-5.29-11.61-4.81-18.1s2.22-14.95-2-19.87-10.87-.61-15.49,4.63c-8.58,6.34-3-16.74-12.29-10.47a7.34,7.34,0,0,0-3,4.92,7.22,7.22,0,0,1-8.75,5.26,7.14,7.14,0,0,1-2.24-1c-3.72-2.93,1.87-8.76,1.57-11.69a6.74,6.74,0,0,0-7.76-3.86c-3.17,1-4.33,8.41-7,10.38S230,591.3,226.44,589.76c-4.49-1.92.6-15.06,3-19.35,1.8-3.24,8.77-11,3.94-14.28-5-3.4-6.6,8-9.79,9s-8.73-6.42-7-11.46a25.68,25.68,0,0,1,10.9-11.31,19.52,19.52,0,0,0,10.32-13.54,7.81,7.81,0,0,0-9.71-7.85c-4.37.93-8.41-4.62-7.47-9.21a20.62,20.62,0,0,1,9.17-11.21,23.66,23.66,0,0,0,9.34-10.29,7.45,7.45,0,0,0-8.07-10.36c-7.13.76-13.95-9.41-6.64-15.23a9.29,9.29,0,0,1,12.68,1.57,7.85,7.85,0,0,0,13.56-3.91,9.17,9.17,0,0,0-4.71-8.6c-2.91-1.78-1.3-7.18,2.1-8.29a13.82,13.82,0,0,1,10.55,2.43,14.8,14.8,0,0,0,10.58,2.75c4.22-1.14-4-8.25-6.54-9.75-5.13-3-17.14-7.16-20.65-12-2.67-3.66-3.48-16,2.66-17.95,5.55-1.77,9,4.3,12.35,9s16.34,22.82,21.92,23.74S287.29,441.39,291.89,432.94Z" transform="translate(-110.99 -358.3)"/><g id="Color" class="cls-4"><text class="cls-5" transform="translate(335.54 204.52)">C<tspan class="cls-6" x="121.56" y="0">ol</tspan><tspan class="cls-7" x="262.16" y="0">o</tspan><tspan class="cls-8" x="359.92" y="0">r</tspan></text></g></g></svg>